# xmcd CD database file
#
# Track frame offsets:
#	150
#	23106
#	46327
#	61168
#	87966
#	110302
#	129378
#	147381
#	178083
#	198129
#	220730
#	230803
#	250628
#	264439
#	276730
#
# Disc length: 3916 seconds
#
# Revision: 0
# Processed by: cddbd v1.4PL0 Copyright (c) Steve Scherf et al.
# Submitted via: CDex 1.51
#
DISCID=d80f4a0f
DTITLE=renato e tiziana - volare
DYEAR=1900
DGENRE=Jazz
TTITLE0=volare
TTITLE1=io so che t'amero'
TTITLE2=il nostro concerto
TTITLE3=e se domani
TTITLE4=domenica e' sempre domenica
TTITLE5=stradivarius
TTITLE6=ciao un bacio e vai
TTITLE7=le mille bolle blu
TTITLE8=anema e core
TTITLE9=e la chiamano estate
TTITLE10=till
TTITLE11=dimmi un po sinatra
TTITLE12=tu musica divina
TTITLE13=munasterio a santa chiara
TTITLE14=scalinatella
EXTD=
EXTT0=
EXTT1=
EXTT2=
EXTT3=
EXTT4=
EXTT5=
EXTT6=
EXTT7=
EXTT8=
EXTT9=
EXTT10=
EXTT11=
EXTT12=
EXTT13=
EXTT14=
PLAYORDER=
